<?xml version="1.0" standalone="no"?><!DOCTYPE svg PUBLIC "-//W3C//DTD SVG 1.1//EN" "http://www.w3.org/Graphics/SVG/1.1/DTD/svg11.dtd"><svg t="1524213781528" class="icon" style="" viewBox="0 0 1024 1024" version="1.1" xmlns="http://www.w3.org/2000/svg" p-id="762" xmlns:xlink="http://www.w3.org/1999/xlink" width="200" height="200"><defs><style type="text/css"></style></defs><path d="M654.3 64H371.2c-45.3 0-76.8 30.2-76.8 75v745.7c0 45.1 31.5 75.3 76.8 75.3h283.1c44.3 0 75.3-30.7 75.3-75V139c0-44-30.2-75-75.3-75z m-180.7 51.2h76.8V128h-76.8v-12.8zM512 934.4c-14.1 0-25.6-11.5-25.6-25.6 0-14.1 11.5-25.6 25.6-25.6s25.6 11.5 25.6 25.6c0 14.1-11.5 25.6-25.6 25.6z m192-76.8H320V166.4h384v691.2z" p-id="763"></path></svg>